<?xml version="1.0" encoding="utf-8"?>
<!-- Generator: Adobe Illustrator 22.1.0, SVG Export Plug-In . SVG Version: 6.00 Build 0)  -->
<svg version="1.1" id="图层_1" xmlns="http://www.w3.org/2000/svg" xmlns:xlink="http://www.w3.org/1999/xlink" x="0px" y="0px"
	 viewBox="0 0 2220 480" style="enable-background:new 0 0 2220 480;" xml:space="preserve">
<style type="text/css">
	.st0{fill:#162A46;}
	.st1{fill:#33A9FF;}
	.st2{fill:#F5F9FF;}
	.st3{fill:#FFFFFF;}
	.st4{fill:#C7D8EF;}
</style>
<g>
	<g>
		<path class="st0" d="M666.6,382c-11.2,0-21.9-1.4-31.9-4.1c-9.8-2.7-17.8-6-23.7-9.9l-0.2-0.2c-12.5-7.5-21.1-14.7-25.8-21.4
			l-0.2-0.2l-3.6-4.4c-5.3-6.5-8.1-12.4-8.1-16.9c0-1.5,1-7.4,14-20c4.8-4.6,9.6-6.9,14.6-6.9c1.7,0,8.5,1.2,23.9,16.5
			c4.1,4.9,9.9,9.6,17.1,13.9c7.8,4.7,15.4,7,22.4,7c16.2,0,43.5-4.8,43.5-37c0-6.1-2.4-14.7-13.6-21.5c-7.3-4.4-16.4-7.7-26.9-9.6
			c-9.2-1.7-19.3-4.5-30.1-8.3c-10.7-3.8-20.8-8.3-30.1-13.4c-8.3-4.6-15.4-12.1-21.1-22.3c-5.8-10.3-8.7-23.1-8.7-37.9
			c0-20.4,7.4-37.7,22.7-52.9c15.2-15.2,35.7-22.7,62.5-22.7c14.4,0,27.6,1.9,39.4,5.6c14.3,4.5,20.6,8.2,23.4,10.5l0.2,0.1l9.4,7.1
			c8.6,8.1,9,11.9,9,12.6c0,1.5-0.8,6.3-7.8,16.5c-7,10.4-13.8,15.6-20.1,15.6c-2.6,0-7.3-1.1-15.4-6.3c-0.2-0.1-1-0.8-3.3-3
			c-2.4-2.3-4.7-4.2-6.7-5.6l-0.2-0.2l-0.2-0.1c-6.6-4.1-14.9-6.2-24.6-6.2c-9.9,0-18.4,2.5-25.3,7.4c-7.5,5.4-11.5,13.4-11.5,22.9
			c0,9.7,4.6,17.8,13.3,23.6c7.4,4.9,16.6,8.3,27.4,10c9.3,1.5,19.7,3.8,30.8,6.9c11,3,21.2,6.8,30.4,11.2
			c8.1,3.8,15.1,10.8,20.7,20.6c5.8,10,8.7,22.8,8.7,37.8c0,15.1-3,28.6-9,40c-5.9,11.3-13.7,20.1-23.2,26.2
			C709,375.6,688.3,382,666.6,382z"/>
		<path class="st0" d="M663.1,117.8c13.6,0,26,1.7,37,5.2c14.3,4.5,19.2,7.8,20.6,9l0.3,0.3l0.3,0.2l8.9,6.7c3.9,3.7,5.4,6,6,7.1
			c-0.4,1.4-1.8,4.9-6.2,11.4l0,0l0,0c-6.1,8.9-10.9,12.1-13.5,12.1c-0.1,0-3.3-0.1-10.7-4.8c-0.3-0.3-1.1-0.9-2.5-2.3l0,0l0,0
			c-2.6-2.5-5.2-4.6-7.5-6.3l-0.4-0.3l-0.5-0.3c-7.9-4.9-17.6-7.4-28.8-7.4c-11.7,0-21.7,3-30,8.9c-9.7,7-14.8,17.2-14.8,29.4
			c0,12.3,6,23.1,16.9,30.3c8.4,5.6,18.7,9.4,30.6,11.3c9,1.4,19.1,3.7,29.9,6.7c10.5,2.9,20.3,6.5,29.1,10.7
			c6.7,3.2,12.3,8.9,17.2,17.4c5.1,8.8,7.6,20.2,7.6,33.8c0,13.8-2.7,26-8.1,36.3c-5.4,10.2-12.1,17.8-20.4,23.2l-0.1,0l-0.1,0
			C705.7,368.2,687,374,666.6,374c-10.5,0-20.5-1.3-29.8-3.8c-9-2.5-16.2-5.4-21.4-8.8l-0.2-0.2l-0.3-0.2
			c-14.3-8.6-20.6-15.2-23.4-19.1l-0.3-0.5l-0.4-0.5l-3.4-4.2c-5.4-6.6-6.2-10.3-6.3-11.5c0.3-1,2.1-5.4,11.5-14.6
			c4.5-4.3,7.6-4.6,8.8-4.7c0.9,0.2,6.2,2,18.2,13.9c4.7,5.6,10.9,10.6,18.9,15.3c9.1,5.4,18,8.2,26.5,8.2
			c15.6,0,27.9-3.7,36.7-10.9c6.7-5.5,14.7-15.9,14.7-34.1c0-6.6-2.3-19.1-17.4-28.4c-8.1-4.9-18.1-8.5-29.7-10.6
			c-8.8-1.6-18.5-4.3-28.9-7.9c-10.3-3.6-20-7.9-28.9-12.8c-7.1-3.9-13-10.2-18-19.2c-5.1-9.1-7.7-20.5-7.7-34
			c0-18.1,6.6-33.6,20.3-47.3C620,124.5,638.6,117.8,663.1,117.8 M663.1,101.8c-28.8,0-51.5,8.3-68.1,25c-16.7,16.7-25,36.2-25,58.6
			c0,16.3,3.2,30.2,9.7,41.8c6.5,11.6,14.6,20,24.2,25.4c9.7,5.3,20.1,10,31.3,13.9c11.2,3.9,21.6,6.8,31.3,8.6
			c9.7,1.8,17.7,4.6,24.2,8.6c6.5,3.9,9.7,8.8,9.7,14.7c0,19.3-11.8,29-35.5,29c-5.6,0-11.7-2-18.3-5.9c-6.6-3.9-11.7-8.1-15.3-12.4
			c-12.7-12.7-22.7-19.1-29.8-19.1c-7.1,0-13.9,3.1-20.2,9.2c-10.9,10.7-16.4,19.3-16.4,25.8c0,6.5,3.3,13.8,9.9,21.9l3.4,4.2
			c5.3,7.6,14.8,15.5,28.2,23.7c6.6,4.3,15.3,8,26,10.9c10.7,2.9,22,4.4,34,4.4c23.4,0,45.4-6.7,66-20.2c10.7-6.9,19.3-16.6,26-29.2
			c6.6-12.6,9.9-27.2,9.9-43.7c0-16.5-3.2-30.5-9.7-41.8c-6.5-11.3-14.6-19.3-24.2-23.9c-9.7-4.6-20.2-8.5-31.7-11.6
			c-11.5-3.2-22-5.5-31.7-7.1c-9.7-1.5-17.7-4.4-24.2-8.8c-6.5-4.3-9.7-10-9.7-17c0-7,2.7-12.5,8.2-16.4c5.5-3.9,12.3-5.9,20.6-5.9
			c8.3,0,15.1,1.7,20.4,5c1.8,1.3,3.8,2.9,5.9,5c2.2,2,3.6,3.3,4.4,3.8c7.9,5.1,14.5,7.6,19.8,7.6c9.2,0,18.1-6.4,26.7-19.1
			c6.1-8.9,9.2-15.9,9.2-21c0-5.1-4-11.3-11.8-18.7l-9.5-7.3c-4.8-4.1-13.5-8.1-26.1-12C692.3,103.8,678.4,101.8,663.1,101.8
			L663.1,101.8z"/>
	</g>
	<g>
		<path class="st0" d="M960.5,377.8c-9.6,0-21.6-1.5-23.6-8.4l-0.1-0.2l-0.1-0.2c-0.8-2.4-1.8-7.2-1.8-16.8V285
			c0-12.6-3.8-22.8-11.4-30.1c-7.5-7.3-17.5-11.1-29.6-11.1c-12.2,0-22.3,3.9-30,11.4c-7.8,7.6-11.8,17.6-11.8,29.8v67.6
			c0,5.5-0.2,9.6-0.5,12.1c-0.2,1.9-1.2,4.2-2.6,6.8l-0.1,0.2l-0.1,0.3c-0.7,1.4-4.2,5.8-22.2,5.8c-11.9,0-20.2-2.2-22.2-5.9
			c-1.4-3-2.2-5.5-2.5-7.6c-0.3-2.6-0.5-6.6-0.5-12.1V217.1c0-5.2,0.2-9.2,0.5-11.8c0.2-1.8,1.2-4.2,2.6-6.8
			c1.5-2.7,8.2-5.5,22.4-5.5c17.6,0,21.2,4,21.8,4.9c1.8,3.1,2.7,6.9,2.7,11.5v30.2l14.9-26.2c0.1-0.2,1-1.7,5.4-5.7
			c3.2-2.9,6.2-5.3,9.1-7.1l0.1-0.1l0.1-0.1c7.4-5,15.3-7.4,24.1-7.4c23.2,0,42,8.7,57.5,26.4c15.8,18.1,23.4,39.7,23.4,65.9v67.2
			c0,5.5-0.2,9.6-0.5,12.1c-0.3,2-1.1,4.4-2.4,7.1C981.1,375.6,972.7,377.8,960.5,377.8z"/>
		<path class="st0" d="M905.1,201c20.8,0,37.6,7.8,51.5,23.7c14.4,16.6,21.5,36.5,21.5,60.7v67.2c0,6.7-0.3,9.8-0.4,11.1
			c-0.1,0.5-0.3,1.7-1.3,3.8c-1.1,0.6-5.2,2.3-15.9,2.3c-11.8,0-15.4-2.3-16-2.8l-0.1-0.3l-0.1-0.4c-0.3-0.9-1.4-4.6-1.4-14.1V285
			c0-14.8-4.6-26.9-13.8-35.9c-9-8.9-20.9-13.3-35.2-13.3c-14.3,0-26.3,4.6-35.6,13.7c-9.3,9.1-14.2,21.3-14.2,35.5v67.6
			c0,6.7-0.3,9.8-0.4,11.1c0,0.1-0.2,1.3-1.7,3.9l0,0.1c-1.1,0.6-5.1,2.2-15.5,2.2c-10.3,0-14.3-1.6-15.4-2.2
			c-1-2.4-1.3-3.7-1.4-4.2c-0.2-1.3-0.4-4.4-0.4-11.1V217.1c0-6.1,0.2-9.2,0.4-10.7c0-0.1,0.2-1.1,1.3-3.2c1.2-0.6,5.3-2.2,15.9-2.2
			c9.8,0,14,1.3,15.4,1.9c0.7,1.7,1.1,3.9,1.1,6.5v60.3l29.7-52.1c0.3-0.3,1.3-1.6,4-4.1c2.8-2.6,5.4-4.6,7.8-6.1l0.3-0.2l0.3-0.2
			C891.5,203,897.9,201,905.1,201 M905.1,185c-10.4,0-20,2.9-28.6,8.8c-3.3,2-6.7,4.7-10.3,8c-3.6,3.3-5.9,5.9-6.9,7.6
			c0-6.1-1.3-11.3-3.8-15.6c-3.6-5.9-13.1-8.8-28.6-8.8c-16,0-25.8,3.2-29.4,9.5c-2,3.6-3.2,6.8-3.6,9.7c-0.4,2.9-0.6,7.2-0.6,12.8
			v135.1c0,5.9,0.2,10.2,0.6,13.2c0.4,2.9,1.5,6.3,3.2,10.1c3.6,6.9,13.4,10.3,29.4,10.3c16.3,0,26.1-3.4,29.4-10.3
			c2-3.6,3.2-6.8,3.6-9.7c0.4-2.9,0.6-7.3,0.6-13.2V285c0-9.9,3.1-17.9,9.4-24c6.2-6.1,14.4-9.2,24.4-9.2c10,0,18.1,2.9,24,8.8
			c6,5.9,9,14,9,24.4v67.2c0,8.7,0.8,15.1,2.3,19.5c2.8,9.4,13.2,14.1,31.3,14.1c16.3,0,26.2-3.4,29.8-10.3c1.8-3.6,2.9-6.8,3.2-9.7
			c0.4-2.9,0.6-7.3,0.6-13.2v-67.2c0-28-8.5-51.7-25.4-71.2C951.7,194.8,930.6,185,905.1,185L905.1,185z"/>
	</g>
	<g>
		<path class="st0" d="M1123.8,381.6c-15.4,0-30.6-3.9-45.1-11.5c-14.5-7.6-26.9-19-37-34c-9.9-14.7-14.9-31.7-14.9-50.3
			c0-28.5,9.7-51.3,29.5-69.7c20-18.6,42.2-27.6,67.8-27.6c25.6,0,47.7,9,67.4,27.4c19.6,18.3,29.1,41.1,29.1,69.5
			c0,19.4-5.1,36.9-15.1,51.9c-10.1,15.2-22.5,26.4-36.8,33.5C1154.5,378,1139.3,381.6,1123.8,381.6z M1123.8,239.6
			c-11,0-21.3,3.8-30.6,11.3c-9.8,7.9-14.8,19.5-14.8,34.3c0,14.9,5.2,26.4,15.3,34.2c9.5,7.3,19.5,11,29.7,11
			c10.1,0,20.2-3.8,30-11.2c10.5-7.9,15.8-19.6,15.8-34.6c0-15-5-26.5-14.9-34.2C1145,243.3,1134.7,239.6,1123.8,239.6z"/>
		<path class="st0" d="M1124.2,196.5c23.5,0,43.8,8.3,62,25.3c17.9,16.7,26.6,37.5,26.6,63.7c0,18.1-4.5,33.6-13.7,47.4
			c-9.3,14-20.7,24.3-33.7,30.8c-13.3,6.6-27.3,10-41.6,10c-14.3,0-27.9-3.5-41.4-10.6c-13.5-7.1-24.6-17.3-34-31.4
			c-9.1-13.6-13.5-28.6-13.5-45.9c0-26.1,8.8-47,26.9-63.8C1080.3,204.8,1100.7,196.5,1124.2,196.5 M1123.4,338.4
			c11.9,0,23.7-4.3,34.9-12.8c8.6-6.5,18.9-19,18.9-41c0-21.9-9.8-34.1-18-40.5c-10.7-8.3-22.6-12.5-35.4-12.5
			c-12.9,0-24.8,4.4-35.6,13.1c-8.1,6.5-17.8,18.9-17.8,40.5c0,21.8,10.1,34.1,18.5,40.6C1099.8,334.2,1111.5,338.4,1123.4,338.4
			 M1124.2,180.5c-27.5,0-51.9,9.9-73.3,29.8c-21.4,19.8-32.1,45-32.1,75.6c0,20.4,5.4,38.6,16.2,54.8
			c10.8,16.2,24.1,28.4,39.9,36.6c15.8,8.3,32.1,12.4,48.9,12.4c16.8,0,33-3.9,48.7-11.6c15.6-7.8,28.9-19.8,39.9-36.3
			c10.9-16.4,16.4-35.2,16.4-56.3c0-30.5-10.6-55.7-31.7-75.4C1176,190.3,1151.7,180.5,1124.2,180.5L1124.2,180.5z M1123.4,322.4
			c-8.4,0-16.7-3.1-24.8-9.4c-8.1-6.2-12.2-15.5-12.2-27.9c0-12.3,3.9-21.7,11.8-28.1c7.9-6.4,16.4-9.5,25.6-9.5
			c9.2,0,17.7,3.1,25.6,9.2c7.9,6.1,11.8,15.4,11.8,27.9c0,12.5-4.2,21.9-12.6,28.2C1140.2,319.3,1131.8,322.4,1123.4,322.4
			L1123.4,322.4z"/>
	</g>
	<g>
		<path class="st0" d="M1435.7,379.3c-4,0-7.9-1.6-11.9-4.9c-4.4-3.5-7.2-7-8.5-10.2l-0.1-0.3l-3.1-6.5c-2.1-5.2-9.2-24-22.4-59.2
			l-7.1-18.9l-7.8,18.7c-2.6,6.2-6.4,16.4-11.4,30.3c-6.1,17-8.5,23.3-9.4,25.6c-1.5,3.6-2.4,6-2.8,7.3c0,0.1-0.5,1.2-2.6,4.8
			c-1.4,2.4-3.1,4.6-4.8,6.4c-4.6,4.6-9.6,6.8-15.3,6.8c-6,0-10.8-1.6-14.7-4.8c-4.3-3.6-7.1-7-8.3-10.3l-57.6-140.4
			c-3.1-9.4-3.3-11.9-3.3-12.1c0-2.4,0-9.8,16.8-16.6c8.9-3.6,14.1-4.4,16.9-4.4c3.4,0,6.1,0.6,7.9,1.9c2.8,1.9,3.9,3.3,4.3,3.9
			c1,1.7,1.8,3.4,2.3,5.1l0.1,0.3l0.1,0.3c4.3,10,13.3,34.1,26.9,71.4l7.5,20.6l30.1-82.7l0.1-0.2c1.1-3.8,3.2-7,6.2-9.8l0.2-0.2
			c5.8-5.8,11.5-8.7,16.9-8.7c5.9,0,10.8,1.5,14.9,4.5c4.3,3.2,7.4,6.4,8.8,9.3l2.8,6c12.8,35.9,20.2,56,22.6,61.3l8,17.9l30-81.7
			c7.2-19.2,16.8-19.2,20-19.2c3.6,0,7.6,1,11.8,3l0.2,0.1c13,5.7,19.6,12.1,19.6,19c0,1.5-0.5,6.1-5.5,17.7
			c-4,9.4-7.5,17.9-10.4,25.2l-42.1,102.5l-0.1,0.2c-3.1,9.2-8,15.4-15,19.1C1443.9,378.7,1440.2,379.3,1435.7,379.3z"/>
		<path class="st0" d="M1487.9,198.7c2.4,0,5.2,0.8,8.4,2.3l0.2,0.1l0.2,0.1c11,4.8,14.8,9.3,14.8,11.6c0,0.1-0.2,3.7-4.8,14.6
			c-4,9.5-7.6,18-10.4,25.3l-41.9,102.2l-0.2,0.5l-0.2,0.5c-1.5,4.5-4.3,10.9-10.9,14.4c-1.1,0.4-3.3,1.1-7.5,1.1
			c-0.8,0-3.1,0-6.9-3.1c-4.4-3.6-5.7-6-6.1-6.9l-0.2-0.5l-0.2-0.5l-2.8-6.1c-2.1-5.4-9.2-24.1-22.2-58.8l-14.2-37.9l-15.6,37.3
			c-2.7,6.4-6.5,16.5-11.6,30.7c-6,16.8-8.4,23.1-9.3,25.3c-1.8,4.4-2.5,6.4-2.9,7.5c-0.2,0.3-0.7,1.4-2,3.7
			c-1.1,1.9-2.3,3.5-3.6,4.8c-4,4-7.3,4.5-9.7,4.5c-5.4,0-8.1-1.7-9.6-3c-4.2-3.5-5.6-5.9-6-7l-0.1-0.1l-0.1-0.1l-57.4-139.9
			c-2.1-6.3-2.7-8.9-2.8-9.8c0.1-0.7,0.3-1.4,1.3-2.5c1.1-1.2,3.9-3.7,10.5-6.3c8.4-3.4,12.5-3.8,13.8-3.8c2.5,0,3.4,0.5,3.4,0.5
			c0,0,0,0,0,0c1.3,0.9,1.8,1.4,2,1.6c0.6,1.1,1.1,2.2,1.5,3.4l0.2,0.6l0.2,0.6c4.2,9.9,13.2,33.8,26.8,71l15,41.2l15-41.2
			l22.5-61.8l0.2-0.4l0.1-0.4c0.7-2.4,2-4.4,4-6.3l0.2-0.2l0.2-0.2c2.9-2.9,7.2-6.4,11.2-6.4c4.2,0,7.4,0.9,10.1,2.9
			c4.4,3.3,6,5.5,6.5,6.4l2.6,5.5c17.1,47.8,21.2,58,22.7,61.5l16.1,35.7l13.5-36.8l23.3-63.3C1480.7,198.7,1486,198.7,1487.9,198.7
			 M1487.9,182.7c-12.2,0-21.4,8.1-27.5,24.4l-23.3,63.4c-2.3-5.1-9.8-25.4-22.5-61.1l-3.1-6.5c-2-4.1-5.8-8.1-11.3-12.2
			c-5.5-4.1-12-6.1-19.7-6.1c-7.6,0-15.1,3.7-22.5,11.1c-4.1,3.8-6.9,8.3-8.4,13.4l-22.5,61.8c-13.7-37.7-22.8-61.6-27.1-71.8
			c-0.8-2.3-1.8-4.5-3.1-6.7c-1.3-2.2-3.5-4.3-6.7-6.5c-3.2-2.2-7.3-3.2-12.4-3.2c-5.1,0-11.7,1.7-19.8,5
			c-14.5,5.9-21.8,13.9-21.8,24c0,2.3,1.3,7.3,3.8,14.9l57.6,140.5c1.8,4.6,5.3,9.1,10.7,13.6c5.3,4.5,12,6.7,19.8,6.7
			c7.9,0,14.9-3.1,21-9.2c2.3-2.3,4.3-5,6.1-8c1.8-3.1,2.9-5.2,3.2-6.3c0.4-1.1,1.3-3.4,2.7-6.9c1.4-3.4,4.6-12.1,9.5-26
			c5-13.9,8.7-23.9,11.3-30c13,34.6,20.5,54.5,22.5,59.5l3.1,6.5c1.8,4.6,5.4,9.1,10.9,13.6c5.5,4.5,11.1,6.7,17,6.7
			c5.9,0,10.7-0.9,14.5-2.7c8.9-4.6,15.3-12.5,19.1-23.7l42-102.3c2.8-7.1,6.2-15.5,10.3-25c4.1-9.5,6.1-16.5,6.1-20.8
			c0-10.4-8.1-19.2-24.4-26.3C1497.9,184,1492.8,182.7,1487.9,182.7L1487.9,182.7z"/>
	</g>
	<g>
		<path class="st0" d="M1581.8,377.8c-11.9,0-20.2-2.2-22.2-5.9c-1.4-3-2.2-5.5-2.5-7.6c-0.3-2.6-0.5-6.6-0.5-12.1V124.4
			c0-5.5,0.2-9.6,0.5-12.1c0.3-2,1.1-4.4,2.4-7.1c2-3.7,10.4-5.9,22.6-5.9c17.6,0,21.1,4.4,21.8,5.8l0.1,0.1l0.1,0.1
			c2,3.7,2.6,6.1,2.8,7.4c0.3,2.6,0.5,6.6,0.5,12.1v101.8l14.2-17.4c8.7-10.6,20.9-15.8,37.3-15.8c20.5,0,39,9,56.6,27.6
			c17.7,18.7,26.3,39.9,26.3,64.5c0,24.7-8.5,45.8-26.1,64.4c-17.4,18.5-35.4,27.5-54.9,27.5c-19.1,0-32.2-4.9-39.8-15.1l-11.3-15
			l-3,18.5C1606.2,369.1,1604.8,377.8,1581.8,377.8z M1649.4,244.2c-12.6,0-22.8,4.6-30.4,13.5c-7.2,8.6-10.8,18.1-10.8,28.2
			c0,10.3,3.8,19.7,11.4,28.1c7.8,8.6,17.7,12.9,29.4,12.9c11.6,0,21.7-4.3,29.8-12.8c8.1-8.4,12.2-18,12.2-28.5
			c0-10.3-3.7-19.9-11.1-28.4C1672.2,248.7,1661.9,244.2,1649.4,244.2z"/>
		<path class="st0" d="M1582.2,107.1c10,0,14,1.6,15,2.1c1.5,2.9,1.7,4.2,1.7,4.3c0.2,1.3,0.4,4.4,0.4,11.1v79.4V249l28.4-34.8
			c7.1-8.7,17-12.8,31.1-12.8c18.2,0,34.8,8.2,50.8,25.1c16.2,17.2,24.1,36.5,24.1,59.1c0,22.6-7.8,41.8-23.9,58.9
			c-15.8,16.8-31.9,24.9-49,24.9c-16.4,0-27.4-3.9-33.4-11.9l-22.5-30l-6.1,37.1c-0.2,1.5-0.6,2-1.9,2.7c-1.7,1-5.9,2.6-15.2,2.6
			c-10.3,0-14.3-1.6-15.4-2.2c-1-2.4-1.3-3.7-1.4-4.3c-0.2-1.2-0.4-4.3-0.4-11.1V124.4c0-6.7,0.3-9.8,0.4-11.1
			c0.1-0.5,0.3-1.7,1.3-3.8C1567.4,108.9,1571.5,107.1,1582.2,107.1 M1649,335c13.7,0,26-5.3,35.6-15.2c9.6-9.9,14.4-21.4,14.4-34
			c0-12.3-4.4-23.6-13.1-33.6c-9.1-10.5-21.7-16-36.5-16c-14.9,0-27.5,5.7-36.5,16.4c-8.4,10.1-12.7,21.3-12.7,33.4
			c0,12.3,4.5,23.6,13.5,33.5C1622.9,329.6,1635.1,335,1649,335 M1582.2,91.1c-16.3,0-26.2,3.4-29.8,10.3c-1.8,3.6-2.9,6.8-3.2,9.7
			c-0.4,2.9-0.6,7.3-0.6,13.2v227.9c0,5.9,0.2,10.2,0.6,13.2c0.4,2.9,1.5,6.3,3.2,10.1c3.6,6.9,13.4,10.3,29.4,10.3
			c19.8,0,30.8-6.2,32.8-18.7c9.2,12.2,24.6,18.3,46.2,18.3c21.6,0,41.9-10,60.7-30c18.8-20,28.2-43.3,28.2-69.8
			c0-26.6-9.5-49.9-28.4-70c-19-20.1-39.8-30.2-62.4-30.2c-18.8,0-33.3,6.2-43.5,18.7v-79.4c0-5.9-0.2-10.2-0.6-13.2
			c-0.4-2.9-1.6-6.3-3.6-10.1C1607.9,94.6,1598.2,91.1,1582.2,91.1L1582.2,91.1z M1649,319c-9.4,0-17.2-3.4-23.5-10.3
			c-6.2-6.9-9.4-14.4-9.4-22.7c0-8.3,3-16,9-23.1c6-7.1,14.1-10.7,24.2-10.7c10.2,0,18.3,3.5,24.4,10.5c6.1,7,9.2,14.7,9.2,23.1
			c0,8.4-3.3,16-9.9,22.9C1666.4,315.6,1658.4,319,1649,319L1649,319z"/>
	</g>
	<g>
		<path class="st0" d="M1941.6,377.4c-16.4,0-21.7-2.5-23.1-3.6c-2.9-2.1-4.5-5.1-5-9.5l-2.4-21l-12.1,17.3
			c-7.9,11.3-21.2,16.8-40.6,16.8c-19.9,0-38-9-55.4-27.6c-17.6-18.7-26.1-39.9-26.1-64.6c0-24.7,8.6-45.7,26.2-64.3
			c17.5-18.5,36.1-27.5,56.6-27.5c7.5,0,14.4,1.3,20.5,3.9c8.1,3.5,11.3,5.9,12.5,7c2.4,2.3,4.4,4.5,5.8,6.6l12.2,17.4l2.3-21.2
			c0.8-7,4-14.2,22.2-14.2c11.3,0,17,1,19.7,1.9c3.6,1.1,4.8,2.8,5.4,4c1.9,3.7,2.5,6.2,2.7,7.6c0.2,1.8,0.5,5.3,0.5,12.1v133.6
			c0,6.8-0.3,10.4-0.5,12.1c-0.3,2-1.1,4.5-2.4,7.5C1958.5,375.5,1951.7,377.4,1941.6,377.4z M1869.4,243.8
			c-12.4,0-22.7,4.5-30.4,13.4c-7.5,8.6-11.3,18.2-11.3,28.6c0,10.5,4.1,20.1,12.2,28.3c8.1,8.3,18.1,12.5,29.8,12.5
			c11.7,0,21.6-4.3,29.4-12.9c7.6-8.4,11.4-17.8,11.4-28.1c0-10.2-3.6-19.7-10.8-28.2C1892.1,248.4,1881.9,243.8,1869.4,243.8z"/>
		<path class="st0" d="M1935.3,201c11.2,0,15.8,1.1,17.3,1.5c0.4,0.1,0.7,0.2,0.8,0.3c1.4,2.8,1.6,4.2,1.7,4.6
			c0.2,1.3,0.4,4.4,0.4,11.1v133.6c0,6.7-0.3,9.8-0.4,11.1c-0.1,0.5-0.3,1.8-1.4,4.2c-0.9,0.5-4.2,1.9-12.2,1.9
			c-13.8,0-18-1.9-18.5-2.2c-0.5-0.4-1.3-1.1-1.6-3.9l-4.8-42l-24.2,34.6c-2.3,3.3-9.3,13.4-34,13.4c-17.6,0-33.8-8.2-49.6-25.1
			c-16.1-17.2-23.9-36.5-23.9-59.1c0-22.5,7.9-41.8,24-58.8c15.9-16.8,32.6-25,50.8-25c6.4,0,12.3,1.1,17.4,3.3
			c7.8,3.3,9.9,5.3,10.1,5.4c2,1.9,3.6,3.8,4.8,5.4l24.5,34.9l4.5-42.4c0.4-3.5,1.5-4.3,2-4.7C1924.1,202.7,1927.3,201,1935.3,201
			 M1869.6,334.6c13.9,0,26.1-5.4,35.3-15.6c9-9.9,13.5-21.1,13.5-33.5c0-12.1-4.3-23.3-12.7-33.4c-9-10.7-21.6-16.4-36.3-16.4
			c-14.6,0-27.2,5.6-36.5,16.1c-8.8,10.1-13.3,21.5-13.3,33.8c0,12.5,5,24.3,14.5,33.9C1843.7,329.5,1856,334.6,1869.6,334.6
			 M1935.3,185c-18.6,0-28.6,7.1-30.2,21.4c-1.8-2.5-4.1-5.2-6.9-7.8c-2.8-2.7-7.8-5.5-14.9-8.6c-7.1-3.1-15-4.6-23.7-4.6
			c-22.6,0-43.4,10-62.4,30c-19,20-28.4,43.3-28.4,69.8c0,26.6,9.4,49.9,28.2,70c18.8,20.1,39.2,30.2,61.3,30.2
			c22,0,37.7-6.7,47.1-20.2c0.8,6.6,3.5,11.6,8.2,15.1c4.7,3.4,14,5.2,27.9,5.2c13.9,0,22.6-3.3,26.1-9.9c1.8-3.8,2.9-7.2,3.2-10.1
			c0.4-2.9,0.6-7.3,0.6-13.2V218.6c0-5.9-0.2-10.2-0.6-13.2c-0.4-2.9-1.5-6.3-3.4-10.1c-1.9-3.8-5.3-6.5-10.1-8
			C1952.6,185.8,1945.2,185,1935.3,185L1935.3,185z M1869.6,318.6c-9.4,0-17.4-3.4-24-10.1c-6.6-6.7-9.9-14.3-9.9-22.7
			c0-8.4,3.1-16.2,9.4-23.3c6.2-7.1,14.4-10.7,24.4-10.7c10,0,18.1,3.6,24,10.7c6,7.1,9,14.8,9,23.1c0,8.3-3.1,15.8-9.4,22.7
			C1886.9,315.2,1879,318.6,1869.6,318.6L1869.6,318.6z"/>
	</g>
	<g>
		<path class="st0" d="M2186,377.4c-24.7,0-43.2-6-55.1-17.7c-11.8-11.7-17.9-30.1-17.9-54.4l-0.4-182.1c0-5.5,0.2-9.6,0.5-12.1
			c0.2-1.3,0.8-3.7,2.7-7.2c1.1-1.8,5.5-5.8,22.8-5.8c11.8,0,19.6,2.3,21.9,6.4c2.2,4.5,3.3,10.9,3.3,19.2v183.2
			c0,7.6,2,12.8,6.3,15.9c3.7,2.8,9.6,3.9,20.4,3.9c6.6,0,11.9,1.6,16.1,4.8c2,1.5,5.3,6.2,5.3,20.4c0,10.5-2,17.7-5.8,20.5
			C2201.7,375.7,2194.9,377.4,2186,377.4z M2071.9,377.4c-23.1,0-39.3-5.3-48.1-15.7c-9.1-10.8-13.8-29.8-13.8-56.5V123.2
			c0-5.5,0.2-9.6,0.5-12.1c0.3-2,1.1-4.6,2.4-7.5c0.9-1.5,5-5.6,22.6-5.6c11.9,0,19.7,2.3,22,6.5l0.1,0.2c1.5,2.6,2.4,5,2.6,6.8
			c0.3,2.6,0.5,6.6,0.5,12.1v183.2c0,4.8,0.4,8.3,1.2,11.1c2.4,8.1,8.4,8.7,10.3,8.7c6.1,0,10.4,1.3,12.9,4c0.9,1,3.9,5.4,3.9,21.2
			c0,15.3-3,20-4.2,21.3C2082.1,376,2077.8,377.4,2071.9,377.4z"/>
		<path class="st0" d="M2138.7,106c10.5,0,14.2,2,15,2.5c0.9,2.2,2.2,6.7,2.2,15.1v183.2c0,10.1,3.2,17.6,9.5,22.3
			c5.3,4,12.3,5.5,25.3,5.5c4.7,0,8.4,1,11.1,3c0.3,0.4,2.3,3.8,2.3,14.2c0,11.4-2.5,14.1-2.5,14.1l0,0c-3.1,2.3-8.4,3.5-15.4,3.5
			c-22.5,0-39.1-5.2-49.4-15.4c-10.3-10.2-15.5-26.6-15.5-48.8l-0.4-182c0-6.7,0.3-9.9,0.4-11.1c0-0.1,0.2-1.3,1.4-3.7
			C2123.6,107.8,2127.7,106,2138.7,106 M2035.6,106c10.9,0,14.5,2.1,15.1,2.5l0.1,0.1c1.5,2.6,1.6,3.8,1.7,3.9
			c0.2,1.3,0.4,4.4,0.4,11.1v183.2c0,5.6,0.5,9.8,1.5,13.3c3.1,10.7,11.3,14.5,17.9,14.5c4,0,6.1,0.7,6.8,1.3c0.4,0.9,2,5,2,15.9
			c0,11.3-1.8,15.2-2.1,15.9c-1.6,1.4-5.1,1.7-7.1,1.7c-20.7,0-34.8-4.3-42-12.8c-9.8-11.6-11.9-34.3-11.9-51.3V123.2
			c0-6.7,0.3-9.8,0.4-11.1c0.1-0.5,0.3-1.7,1.2-3.9C2021,107.6,2025.3,106,2035.6,106 M2138.7,90c-16,0-26,3.3-29.8,9.9
			c-2,3.8-3.2,7.2-3.6,10.1c-0.4,2.9-0.6,7.3-0.6,13.2l0.4,182.1c0,53.4,27,80.2,80.9,80.2c10.7,0,19-2.2,25-6.7
			c6-4.5,9-13.4,9-26.9c0-13.5-2.8-22.4-8.4-26.7c-5.6-4.3-12.6-6.5-21-6.5s-13.6-0.8-15.7-2.3c-2-1.5-3.1-4.7-3.1-9.5V123.6
			c0-9.7-1.4-17.3-4.2-22.9C2163.9,93.6,2154.2,90,2138.7,90L2138.7,90z M2035.6,90c-16.3,0-26.2,3.3-29.8,9.9
			c-1.8,3.8-2.9,7.2-3.2,10.1c-0.4,2.9-0.6,7.3-0.6,13.2v182.1c0,28.8,5.2,49.3,15.7,61.6c10.4,12.3,28.5,18.5,54.2,18.5
			c8.1,0,14.4-2.2,18.7-6.7c4.3-4.5,6.5-13.4,6.5-26.9c0-13.5-2-22.4-6.1-26.7c-4.1-4.3-10.3-6.5-18.7-6.5c-2.3,0-3.4-3.9-3.4-11.8
			V123.6c0-5.9-0.2-10.2-0.6-13.2c-0.4-2.9-1.6-6.2-3.6-9.7C2060.8,93.6,2051.2,90,2035.6,90L2035.6,90z"/>
	</g>
</g>
<g>
	<g>
		<circle class="st1" cx="240" cy="240" r="196.8"/>
		<path class="st1" d="M240,52.8c103.2,0,187.2,84,187.2,187.2s-84,187.2-187.2,187.2S52.8,343.2,52.8,240S136.8,52.8,240,52.8
			 M240,33.6C126.2,33.6,33.6,126.2,33.6,240c0,113.8,92.6,206.4,206.4,206.4c113.8,0,206.4-92.6,206.4-206.4
			C446.4,126.2,353.8,33.6,240,33.6L240,33.6z"/>
	</g>
	<path class="st2" d="M480,240c0,132.6-107.4,240-240,240c-61.7,0-117.9-23.2-160.4-61.5c7.2-4.4,14.6-8.8,21.8-12.9
		c0,0,0.1-0.1,0.1-0.1c3-1.7,5.9-3.3,8.8-4.9c15.8-8.5,30.1-15,39-16.4c30.5-4.7,48.5-29.1,53.3-34.1c14.2-15,27.6-14.7,32.2-16.1
		c21.7-6.6,32.8-22,34.4-24.1c14.1-18.2,39-21.2,44.4-22.8c25.3-7.4,35.5-20.4,40.2-22.9c24.7-13.5,39.5-1.5,56.4-24.2
		c8.4-11.2,26.8-24,43.2-33.9c8.4-5.1,16.4-9.6,22.1-12.6C478.5,208.5,480,224.1,480,240z"/>
	<path class="st3" d="M480,240c0,0.6,0,1.2,0,1.8c-0.1-15.3-1.6-30.3-4.5-44.9c-5.8,3.1-13.7,7.5-22.1,12.6
		c-16.4,10-34.8,22.7-43.2,33.9c-16.9,22.6-31.7,10.6-56.4,24.2c-4.7,2.6-14.9,15.5-40.2,22.9c-5.4,1.6-30.3,4.6-44.4,22.8
		c-1.6,2.1-12.7,17.5-34.4,24.1c-4.5,1.4-18,1.1-32.2,16.1c-4.8,5.1-22.8,29.4-53.3,34.1c-8.9,1.4-23.2,7.9-39,16.4
		c-2.9,1.6-5.8,3.2-8.8,4.9c0,0-0.1,0.1-0.1,0.1c-6.4,3.6-13,7.5-19.4,11.4c-0.8-0.7-1.6-1.4-2.3-2.1c7.2-4.4,14.6-8.8,21.8-12.9
		c0,0,0.1-0.1,0.1-0.1c3-1.7,5.9-3.3,8.8-4.9c15.8-8.5,30.1-15,39-16.4c30.5-4.7,48.5-29.1,53.3-34.1c14.2-15,27.6-14.7,32.2-16.1
		c21.7-6.6,32.8-22,34.4-24.1c14.1-18.2,39-21.2,44.4-22.8c25.3-7.4,35.5-20.4,40.2-22.9c24.7-13.5,39.5-1.5,56.4-24.2
		c8.4-11.2,26.8-24,43.2-33.9c8.4-5.1,16.4-9.6,22.1-12.6C478.5,208.5,480,224.1,480,240z"/>
	<g>
		<g>
			<path class="st1" d="M240,472c-57.4,0-112.4-21.1-155-59.4C36.1,368.6,8,305.7,8,240c0-62,24.1-120.2,67.9-164.1
				C119.8,32.1,178,8,240,8c54.1,0,106.7,19,148.2,53.5c41,34.1,69.2,81.5,79.4,133.5c2.9,14.7,4.4,29.8,4.4,45
				c0,62-24.1,120.2-67.9,164C360.2,447.9,302,472,240,472z M240,16c-59.8,0-116.1,23.3-158.4,65.6C39.3,123.9,16,180.2,16,240
				c0,66.5,29.3,129.1,80.3,171.8C136.5,445.5,187.5,464,240,464c59.8,0,116.1-23.3,158.4-65.6C440.7,356.1,464,299.8,464,240
				c0-11.8-0.9-23.7-2.8-35.2c-8.2-52.1-34.9-99.9-75-134.5C345.6,35.3,293.7,16,240,16z"/>
			<path class="st1" d="M240,0C107.4,0,0,107.4,0,240c0,70.9,30.7,134.6,79.6,178.5C122.1,456.8,178.3,480,240,480
				c132.6,0,240-107.4,240-240c0-15.9-1.5-31.5-4.5-46.6C453.8,83.2,356.6,0,240,0L240,0z M240,456c-52.8,0-101.1-18.9-138.6-50.3
				C54.1,366,24,306.5,24,240c0-119.3,96.7-216,216-216c107.7,0,197.1,78.9,213.3,182.1c1.8,11.1,2.7,22.4,2.7,33.9
				C456,359.3,359.3,456,240,456L240,456z"/>
		</g>
	</g>
	<circle class="st2" cx="240" cy="213.2" r="84"/>
	<path class="st3" d="M306.1,265.1c8.9-13.3,14-29.3,14-46.5c0-46.4-37.6-84-84-84c-26.8,0-50.7,12.6-66,32.1
		c15-22.6,40.8-37.5,69.9-37.5c46.4,0,84,37.6,84,84C324,232.8,317.3,250.8,306.1,265.1z"/>
	<circle class="st2" cx="182.5" cy="300.3" r="11.3"/>
	<path class="st4" d="M183.8,309.7c-6.2,0-11.3-5.1-11.3-11.3c0-2,0.5-3.8,1.4-5.5c-1.7,2-2.7,4.5-2.7,7.3c0,6.2,5.1,11.3,11.3,11.3
		c4.3,0,8-2.4,9.9-5.9C190.3,308.2,187.3,309.7,183.8,309.7z"/>
	<circle class="st2" cx="174.6" cy="340.4" r="5.3"/>
	<path class="st4" d="M175.2,344.8c-2.9,0-5.3-2.4-5.3-5.3c0-0.9,0.2-1.8,0.7-2.5c-0.8,0.9-1.3,2.1-1.3,3.4c0,2.9,2.4,5.3,5.3,5.3
		c2,0,3.7-1.1,4.6-2.7C178.2,344.1,176.8,344.8,175.2,344.8z"/>
	<circle class="st2" cx="123.3" cy="361.4" r="5.3"/>
	<path class="st4" d="M123.9,365.8c-2.9,0-5.3-2.4-5.3-5.3c0-0.9,0.2-1.8,0.7-2.5c-0.8,0.9-1.3,2.1-1.3,3.4c0,2.9,2.4,5.3,5.3,5.3
		c2,0,3.7-1.1,4.6-2.7C127,365.1,125.5,365.8,123.9,365.8z"/>
	<circle class="st2" cx="93.6" cy="345.7" r="2.6"/>
	<path class="st4" d="M93.9,347.9c-1.5,0-2.6-1.2-2.6-2.6c0-0.5,0.1-0.9,0.3-1.3c-0.4,0.5-0.6,1.1-0.6,1.7c0,1.5,1.2,2.6,2.6,2.6
		c1,0,1.9-0.6,2.3-1.4C95.4,347.5,94.7,347.9,93.9,347.9z"/>
	<circle class="st2" cx="148.7" cy="324.5" r="5.3"/>
	<path class="st4" d="M149.3,328.9c-2.9,0-5.3-2.4-5.3-5.3c0-0.9,0.2-1.8,0.7-2.5c-0.8,0.9-1.3,2.1-1.3,3.4c0,2.9,2.4,5.3,5.3,5.3
		c2,0,3.7-1.1,4.6-2.7C152.3,328.2,150.9,328.9,149.3,328.9z"/>
	<path class="st4" d="M431.3,340.2C395.1,408.9,323,455.8,240,455.8c-52.7,0-101-18.9-138.5-50.2c3-1.7,5.9-3.3,8.8-4.9
		c36.9,29.3,83.5,46.8,134.3,46.8C324.3,447.5,393.8,404.4,431.3,340.2z"/>
	<g>
		<path class="st3" d="M109.5,336.6c-0.4,0-0.7-0.2-0.9-0.5c-0.4-0.5-0.3-1.3,0.2-1.7l58.6-46.6c0.5-0.4,1.3-0.3,1.7,0.2
			c0.4,0.5,0.3,1.3-0.2,1.7l-58.6,46.6C110,336.5,109.8,336.6,109.5,336.6z"/>
	</g>
	<g>
		<path class="st3" d="M96,309.9c-0.4,0-0.7-0.2-0.9-0.5c-0.4-0.5-0.3-1.3,0.2-1.7l58.6-46.6c0.5-0.4,1.3-0.3,1.7,0.2
			c0.4,0.5,0.3,1.3-0.2,1.7l-58.6,46.6C96.5,309.8,96.2,309.9,96,309.9z"/>
	</g>
	<g>
		<path class="st3" d="M138.4,294.7c-0.2,0-0.4-0.1-0.5-0.2c-0.2-0.3-0.2-0.6,0.1-0.8l21.9-17.4c0.3-0.2,0.6-0.2,0.8,0.1
			c0.2,0.3,0.2,0.6-0.1,0.8l-21.9,17.4C138.7,294.6,138.5,294.7,138.4,294.7z"/>
	</g>
	<g>
		<path class="st3" d="M133.1,355.4c-0.2,0-0.4-0.1-0.5-0.2c-0.2-0.3-0.2-0.6,0.1-0.8l21.9-17.4c0.3-0.2,0.6-0.2,0.8,0.1
			c0.2,0.3,0.2,0.6-0.1,0.8l-21.9,17.4C133.4,355.4,133.2,355.4,133.1,355.4z"/>
	</g>
	<g>
		<path class="st3" d="M131,263c-0.2,0-0.4-0.1-0.5-0.2c-0.2-0.3-0.2-0.6,0.1-0.8l16.4-13c0.3-0.2,0.6-0.2,0.8,0.1
			c0.2,0.3,0.2,0.6-0.1,0.8l-16.4,13C131.3,262.9,131.2,263,131,263z"/>
	</g>
	<path class="st4" d="M295.7,276.1c-14.8,13.1-34.3,21.1-55.7,21.1c-46.4,0-84-37.6-84-84c0-28.2,13.9-53.2,35.3-68.4
		C174,160.2,163,182.6,163,207.6c0,46.4,37.6,84,84,84C265.2,291.6,281.9,285.9,295.7,276.1z"/>
	<g>
		<path class="st3" d="M240,43.2c52.6,0,102,20.5,139.2,57.6c37.2,37.2,57.6,86.6,57.6,139.2s-20.5,102-57.6,139.2
			c-37.2,37.2-86.6,57.6-139.2,57.6s-102-20.5-139.2-57.6C63.7,342,43.2,292.6,43.2,240s20.5-102,57.6-139.2S187.4,43.2,240,43.2
			 M240,24C120.7,24,24,120.7,24,240s96.7,216,216,216s216-96.7,216-216S359.3,24,240,24L240,24z"/>
	</g>
</g>
</svg>
