<?xml version="1.0" encoding="utf-8"?>
<!-- Generator: Adobe Illustrator 25.4.1, SVG Export Plug-In . SVG Version: 6.00 Build 0)  -->
<svg version="1.1" id="Layer_1" xmlns="http://www.w3.org/2000/svg" xmlns:xlink="http://www.w3.org/1999/xlink" x="0px" y="0px"
	 viewBox="0 0 596 406" style="enable-background:new 0 0 596 406;" xml:space="preserve">
<style type="text/css">
	.st0{fill:#F36D21;}
</style>
<g>
	<g>
		<path class="st0" d="M148.1,276.7c-2.5-1.7-5.4-2.9-8.8-3.7c-3.3-0.7-6.8-1.1-10.5-1.1h-25.6v81.6h9.8v-37.1c3,0,6.1,0,9.4,0.1
			c3.3,0,6.5-0.1,9.7-0.3c3.2-0.3,6.3-0.8,9.2-1.6c2.9-0.8,5.5-2,7.7-3.7c2.2-1.6,4-3.8,5.3-6.5c1.3-2.7,2-6.1,2-10.3
			c0-4.2-0.7-7.7-2.2-10.6C152.6,280.7,150.6,278.4,148.1,276.7z M144.2,300.8c-1.1,1.8-2.5,3.3-4.3,4.3c-1.8,1-3.8,1.8-6.1,2.2
			c-2.3,0.4-4.6,0.6-7,0.6H113v-27.5h14.6c2.3,0,4.5,0.2,6.7,0.6c2.2,0.4,4.1,1.1,5.8,2.1c1.7,1,3,2.4,4.1,4.1
			c1,1.7,1.5,3.9,1.5,6.7C145.8,296.7,145.2,299,144.2,300.8z M199.9,304.8c-1.4-2.5-3.5-4.4-6.2-5.9c-2.7-1.4-6.3-2.2-10.8-2.2
			c-2.6,0-5,0.1-7.4,0.4c-2.3,0.3-4.5,0.8-6.4,1.7c-1.9,0.8-3.7,2.1-5.1,3.7c-1.5,1.6-2.7,3.8-3.6,6.6h7.6c0.9-2.2,2.6-3.6,5.1-4.2
			c2.5-0.6,5.4-0.9,8.8-0.9c4.1,0,7.3,1,9.5,3c2.2,2,3.3,5,3.3,9.2v3.5c-2.4,0.1-4.9,0.2-7.6,0.2c-2.7,0.1-5.5,0.3-8.2,0.6
			c-2.7,0.3-5.4,0.8-7.9,1.5c-2.5,0.7-4.8,1.8-6.7,3.2c-1.9,1.4-3.5,3.2-4.6,5.5c-1.1,2.2-1.7,5-1.7,8.4c0,2.7,0.5,5.1,1.5,7.1
			c1,2,2.4,3.7,4.1,5s3.7,2.3,6,3c2.3,0.7,4.7,1,7.2,1c8,0,14-3.4,18-10.2v8.6h8.7v-29.3c0-3.8-0.2-7.4-0.7-10.7
			C202.3,310.1,201.4,307.2,199.9,304.8z M194.2,334.3c-0.4,2.6-1.2,4.9-2.3,6.9c-1.1,2-2.7,3.7-4.7,4.9c-2,1.3-4.6,1.9-7.8,1.9
			c-1.5,0-3-0.2-4.6-0.6c-1.5-0.4-2.9-1.1-4.1-1.9c-1.2-0.9-2.2-1.9-2.9-3.2c-0.7-1.3-1.1-2.8-1.1-4.5c0-2.7,0.9-4.9,2.6-6.4
			c1.7-1.5,3.8-2.7,6.2-3.4c2.4-0.8,4.9-1.2,7.6-1.4c2.7-0.2,4.9-0.3,6.8-0.3c0.8,0,1.7,0,2.5,0.1c0.8,0,1.7,0.1,2.5,0.2
			C194.8,329.1,194.6,331.7,194.2,334.3z M257.3,303.3c-1.6-2-3.7-3.6-6.3-4.7c-2.6-1.1-5.7-1.7-9.5-1.7c-3.7,0-7.2,0.9-10.5,2.6
			c-3.3,1.7-5.9,4.2-7.6,7.6c-0.1,0.1-0.1-0.2-0.1-0.9v-2.4c0-0.9,0-2,0.1-3c0-1.1,0.1-1.9,0.1-2.6h-9.6v55.4h9.5v-30.1
			c0-2.4,0.3-4.8,0.9-7c0.6-2.2,1.6-4.2,2.9-6c1.3-1.8,2.9-3.2,4.9-4.2c2-1.1,4.3-1.6,7-1.6c2.5,0,4.7,0.4,6.4,1.2
			c1.8,0.8,3.2,1.9,4.3,3.3c1.1,1.4,1.8,3.1,2.3,5c0.5,1.9,0.7,4.1,0.7,6.4v33h9.2V320c0-3.5-0.4-6.7-1.1-9.5
			C260.1,307.7,259,305.3,257.3,303.3z M317.9,306.6h-0.1c-2.4-3.2-5.2-5.6-8.5-7.1c-3.3-1.6-6.9-2.3-10.9-2.3
			c-4.1,0-7.8,0.7-11,2.2c-3.2,1.4-6,3.4-8.3,6c-2.3,2.6-4,5.5-5.2,9c-1.2,3.4-1.8,7.1-1.8,11.1c0,4,0.6,7.6,1.8,11
			c1.2,3.4,2.9,6.3,5.1,8.8c2.2,2.5,4.9,4.4,8.1,5.8c3.2,1.4,6.8,2.1,11,2.1c4.1,0,7.9-0.8,11.2-2.3c3.4-1.5,6.1-4.1,8.3-7.6v9.1
			c0,6.1-1.4,10.8-4.2,14.2c-2.8,3.4-7.4,5.1-13.8,5.1c-2,0-3.8,0-5.5-0.1c-1.7-0.1-3.3-0.4-4.7-0.8c-1.4-0.5-2.7-1.2-3.8-2.2
			c-1.1-1-2-2.5-2.8-4.3l-8.6,0.1c1.4,2.9,2.9,5.3,4.5,7.1c1.6,1.9,3.4,3.3,5.4,4.5c2,1.1,4.2,1.9,6.7,2.3c2.4,0.5,5.2,0.7,8.3,0.7
			c6.1,0,11-0.8,14.7-2.4c3.7-1.6,6.5-3.9,8.4-6.8c1.9-3,3.2-6.6,3.8-10.8c0.6-4.3,0.9-9.1,0.9-14.5v-45.9h-9V306.6z M316.8,333.2
			c-0.7,2.5-1.8,4.7-3.4,6.5c-1.5,1.8-3.4,3.3-5.8,4.3c-2.3,1.1-5,1.6-8.2,1.6c-2.9,0-5.4-0.6-7.6-1.7c-2.2-1.1-4.1-2.7-5.6-4.6
			c-1.5-1.9-2.7-4.1-3.4-6.6c-0.8-2.5-1.1-5-1.1-7.7c0-2.7,0.4-5.2,1.1-7.7c0.8-2.5,1.9-4.7,3.4-6.6s3.3-3.5,5.5-4.7
			c2.2-1.2,4.8-1.8,7.6-1.8c3.1,0,5.8,0.5,8.2,1.6c2.3,1.1,4.2,2.5,5.8,4.3c1.5,1.8,2.7,4,3.4,6.5c0.8,2.5,1.1,5.2,1.1,8.2
			C317.9,328,317.5,330.7,316.8,333.2z M385.1,305c-2.5-2.5-5.4-4.5-8.9-6c-3.5-1.4-7.3-2.2-11.6-2.2c-4.4,0-8.4,0.7-11.9,2.2
			c-3.5,1.4-6.6,3.5-9.1,6c-2.5,2.6-4.4,5.7-5.8,9.3c-1.3,3.6-2,7.6-2,11.9c0,4.3,0.7,8.2,2,11.7c1.3,3.5,3.2,6.6,5.7,9.2
			c2.5,2.6,5.4,4.6,8.9,6c3.5,1.4,7.4,2.1,11.7,2.1c4.3,0,8.3-0.7,11.8-2.2c3.5-1.4,6.5-3.5,9-6.1c2.5-2.6,4.4-5.7,5.8-9.4
			c1.4-3.6,2.1-7.5,2.1-11.8c0-4.2-0.7-8.1-2-11.6C389.4,310.6,387.5,307.5,385.1,305z M381.8,334c-0.8,2.7-1.9,5-3.4,7.1
			c-1.5,2.1-3.5,3.7-5.8,4.9c-2.4,1.2-5.1,1.8-8.3,1.8c-3.1,0-5.8-0.6-8.2-1.8c-2.4-1.2-4.3-2.8-5.9-4.9c-1.6-2-2.7-4.4-3.5-7
			c-0.8-2.6-1.1-5.4-1.1-8.3c0-3,0.4-5.8,1.2-8.4c0.8-2.6,2-4.9,3.6-6.9c1.6-2,3.6-3.6,5.9-4.7c2.4-1.2,5.1-1.8,8.3-1.8
			c3.1,0,5.8,0.6,8.1,1.8c2.3,1.2,4.2,2.8,5.7,4.7c1.5,2,2.6,4.3,3.4,6.9c0.7,2.6,1.1,5.3,1.1,8.2
			C382.9,328.5,382.6,331.3,381.8,334z M403.3,353.6h8.8v-88.1h-8.8V353.6z M429.3,274c-1.5,0-2.9,0.6-4,1.7
			c-1.1,1.1-1.7,2.5-1.7,4.1c0,1.6,0.6,3,1.7,4.1c1.1,1.1,2.5,1.7,4,1.7c1.6,0,3-0.6,4.1-1.7c1.1-1.1,1.7-2.5,1.7-4.1
			c0-1.6-0.6-2.9-1.7-4.1C432.3,274.6,430.9,274,429.3,274z M425.1,353.6h8.8v-55.4h-8.8V353.6z M491.8,310.5
			c-0.7-2.8-1.9-5.2-3.5-7.2c-1.6-2-3.7-3.6-6.3-4.7c-2.6-1.1-5.7-1.7-9.5-1.7c-3.7,0-7.2,0.9-10.5,2.6c-3.3,1.7-5.9,4.2-7.6,7.6
			c-0.1,0.1-0.1-0.2-0.1-0.9v-2.4c0-0.9,0-2,0.1-3c0-1.1,0.1-1.9,0.1-2.6h-9.6v55.4h9.5v-30.1c0-2.4,0.3-4.8,0.9-7
			c0.6-2.2,1.6-4.2,2.9-6c1.3-1.8,2.9-3.2,4.9-4.2c2-1.1,4.3-1.6,7-1.6c2.5,0,4.7,0.4,6.4,1.2c1.8,0.8,3.2,1.9,4.3,3.3
			c1.1,1.4,1.8,3.1,2.3,5c0.5,1.9,0.7,4.1,0.7,6.4v33h9.2V320C492.9,316.5,492.5,313.3,491.8,310.5z"/>
		<g>
			<path class="st0" d="M319.8,136.3c-8.2-4-15.1-8.7-21.5-14.5c-6.3-5.7-11.4-12.4-16.5-19.4c-4.9,1.9-14.1,11.9-17.6,19.3
				c-3.6,7.8-7.8,15.4-13.4,22.1c-7.7,9.3-16.3,13-22.3,15.2c-1.7,0.6-2.7,1.8-2.3,3.8c0.4,1.9,2,2.5,3.7,2.4
				c1.6-0.1,3.2-0.1,4.8-0.4c14.6-2.8,28.7-7.3,42-14c0.9-0.5,1.9-0.8,3-1.3c1.1,1.5,3.4,4.9,3.4,4.9s1.1-0.5,1.8-0.7
				c10.2-2,19.8-0.4,28.7,5.1c1.9,1.2,4,2,6.5,3.2C321.9,153,322.1,144.7,319.8,136.3z M303.8,159.3c-12.9-5.1-27.4-0.6-34.4,10.8
				c-0.5,0.8-1.1,1.5-1.8,2.4c-1.2-1-2.2-1.8-3.3-2.6c-3-2.3-6.1-4.3-9.9-5.3c-3-0.7-5.6-0.2-8.4,2.5c0.6,1.9,11,25.1,15.5,34.9
				c1.2,2.6,3.1,3.1,5.6,2.7c10.8-1.5,21-4.6,30.4-10.2c10.7-6.4,17.4-15.8,20.9-27.8c-3.3-1.8-6.6-3.7-9.9-5.4
				C307.1,160.7,305.5,160,303.8,159.3z"/>
			<path class="st0" d="M381.6,131.3c-26.4,12.5-33.4,11.1-55.9,6.8c1.9,8.2,1.3,17.5,0,25.8c3.3,1,7.4,2.4,10.3,3.2
				c8.9,2.3,17.8,4.1,27.1,2.9c8.8-1.2,14.3-5.7,16.6-14.2c2-7.2,2.2-14.6,2-22C381.7,133.2,381.6,131.3,381.6,131.3z M386.1,150.7
				c-0.7,2-1,3.8-1.4,5.6c-2.2,9.8-3.2,19.7-2.7,29.7c0.3,6.4,1.2,12.6,4.2,18.3c2,3.7,4.7,6.6,9.1,7.7c7.7-8.4,18.7-37.6,16.9-43.6
				C399.8,168.4,391.7,161.5,386.1,150.7z M413,128.1c-10.1,0.8-12.9-0.3-26.8-11.3c-0.7,7.2,0.5,20.2,2.9,27
				c1.7,4.7,3.7,9.3,7.2,12.9c4.6,4.9,10.3,7,16.9,6.6C415.8,157.2,415.5,133.8,413,128.1z"/>
			<path class="st0" d="M355.8,175.4c-8.1-0.3-26-4.2-27.9-5c1.8,10.9,4,21,9.2,30.1c1,1.7,2.3,3.4,3.7,4.8
				c3.2,3.1,6.4,3.6,10.3,1.5c2-1.1,4-2.3,5.7-3.8c9.9-8.3,15.6-20,19.4-32.4C369.8,173.5,362.2,175.6,355.8,175.4z M382.5,207.5
				c-1.4-2.9-2.7-5.9-3.5-9c-1.1-4.4-1.5-8.9-2.4-14.3c-1.6,3.2-3,5.5-4,7.9c-2.7,6.2-5.4,12.3-7.8,18.6c-2,5.2-2.8,10.7-2.2,16.3
				c0.5,5.3,2.4,9.9,7.9,12.5c8.3-6.6,15.8-14,22.2-22.9C388,214.3,384.5,211.6,382.5,207.5z"/>
			<path class="st0" d="M331.8,223.4c0,0-21.3,9.6-29.3,16c-5.1,4.1-9.5,8.8-12.1,14.9c-1.4,3.1-2.4,6.2-1.7,10.1
				c13,1.2,25.7,0.3,38.6-3.3c-5.8-12.7-4.5-24.5,3-35.6C330.9,224.4,331.8,223.4,331.8,223.4z M312.6,227.3
				c-4.1-5.4-5.2-11.3-4.8-17.4c0.4-6.1,1.5-12.2,2.4-18.8c-7.1,6-14.1,11.6-20.7,17.7c-4.3,3.9-7.6,8.8-9.8,14.2
				c-1.1,2.6-2.1,5.2-1.7,8.2C289.8,233,301.3,233.1,312.6,227.3z"/>
			<path class="st0" d="M187.8,187.4c5.9-1.1,11.1-0.9,16.2,0.7c8,2.4,14.1,7.3,18.4,14.3c2.4,4,4.5,8.2,7,12.9
				c-8.5-1.4-16.4-1.3-23,5.2C198.2,210.5,192.4,199.6,187.8,187.4z"/>
			<path class="st0" d="M335,79.9c9.2,4.6,17.6,9.1,21.2,19.3c-6.7,4.8-14.2,6.1-21.9,6.3c-7.7,0.2-15.1-1.9-23-5.2
				c4.5,7,9,18.4,13,32.2c18.1,7.8,39.4,4.1,57.1-7.2c-0.2-11.9-5.2-25.8-10.4-32.5C365,85.3,351.4,76.3,335,79.9z M327.4,46.4
				c6.3-2.2,12.7-3.5,19.4-2.7c4.8,0.6,9,2.3,12.1,6.1c-0.8,8.5-13.3,19.8-19.8,24.4c2.4,0.2,5.1,0.4,7.3,0.7
				c6.3,0.9,12.3,2.9,18.1,5.5c7.6,3.4,15.5,5.5,23.8,5.6c4,0.1,8,0,12.1-2.2c-3.1-6.2-6.8-11.5-10.8-16.5
				c-15.1-18.9-33.9-32.2-57.9-37.2c-2.5-0.5-8.1-1-8.1-1c0.6,6.6,0.4,12.8-2.2,19.5C324,47.7,325.7,47,327.4,46.4z M402.7,88.6
				c-9,3.6-18,2.6-27.3,0.9c2.2,4.1,4,7.7,6.1,11.1c2.1,3.5,4.1,7,6.7,10c2.9,3.3,6.1,6.5,9.7,9.1c4.2,3.2,9.2,4.4,15.1,3
				C411.1,110.7,408.1,99.5,402.7,88.6z"/>
			<path class="st0" d="M364.1,241.3c-4.2-3.8-6.2-8.7-6.4-14.3c-0.2-5,0.2-9.9,1.5-14.8c0.5-1.9,0.9-3.9,1.4-5.9
				c-5.9,4.2-12.2,8-17.8,12.7c-7.1,5.9-12.4,13.1-13.9,22.5c-1.1,6.5,0.4,12.4,3.6,18.3c12.3-3.8,23.2-9.2,33.4-16.6
				C365,242.2,364.6,241.7,364.1,241.3z M330.2,198c-3.2-6.9-4.9-14.2-6.4-21.6c-0.3-1.3-0.6-2.5-1-4.3c-0.7,1-1,1.4-1.2,1.9
				c-3.9,9.8-7,19.8-8.4,30.3c-0.7,5.1-1,10.2,0.7,15.2c0.7,2.2,1.6,4.3,4.4,5.5c7.7-3.9,16.2-8.4,24.2-12.5
				C342.5,212.5,335.1,208.3,330.2,198z"/>
			<path class="st0" d="M277.7,236.3c-6.2-0.3-12.4-1-18.5-0.8c-7.8,0.3-15,2.9-21.5,7.4c-1.1,0.8-2.1,1.8-3.5,3
				c15.3,9.9,31.3,15.8,49.1,18c0.5-11,6-19,13-26.8C295.3,237.1,282.9,236.6,277.7,236.3z M234.7,213.6c2.2,3.3,5,6.1,8.4,8
				c9.1,5,19,7.3,29.4,9c1.3-9,5.6-16.3,11-23.2c-19.7,4.6-38.6,3.2-56.7-6.4C229.5,205.2,231.9,209.5,234.7,213.6z M236,223.4
				c-3.8-1.7-7.8-3-11.9-3.8c-5.3-1.1-10.1,0.2-14.5,4.7c6.2,7.2,12.6,13.4,20.2,18.6c6.3-6,13.8-9.4,22-11.5
				C246.4,228.5,241.3,225.7,236,223.4z"/>
			<path class="st0" d="M181,148.8c3.3,0.5,5.2,2,6.6,4c1.7,2.4,3.4,4.9,4.4,7.6c2.4,6.8,5.9,13,10.1,18.8c0.8,1,1.4,2.2,2.1,3.2
				c-6.1,0-12,0-18.1,0C182.8,171.3,180.9,160.4,181,148.8z"/>
			<path class="st0" d="M184.9,118.5c2.5,1.9,3,4,3,6.1c0,2.3-0.2,4.6-0.2,6.8c0.1,4.7,0.2,9.3,0.4,14.3c-2.2-0.8-4.3-1.7-6.8-2.6
				C181.2,135,182.6,127,184.9,118.5z"/>
			<path class="st0" d="M317.4,80c6-3.1,21.2-11.9,27.4-17.7c3.4-3.1,6.4-6.6,8.5-11.2c-1.6-0.7-7.7-3.7-15-2.4
				c-8.5,1.5-16.2,5-23.7,9c-3.5,1.9-7.1,3.7-10.6,5.6c9.6-9.4,17.6-19.4,14.2-34.1c-17.9-1.9-31.8,5.3-43.3,18.3
				c-1.9-4.5-0.7-9.4-2.3-13.5c-1.3,0.5-25.8,9.5-31.6,39.1c-1.4,7.3-2,14.7-3.4,22c-1.7,9.4-4,18.7-9,27.1
				c-2.2,3.7-0.7,6.1,3.6,6.6c3.9,0.4,7.4-0.4,10.6-2.8c12.6-9.8,39.3-30.3,40.4-31c5,13,23.9,29.4,33.7,33.9
				c-4-14.7-12.9-34-15.9-40.1c15,10.6,30.5,15.3,48.9,8.7C347,93,335.6,81.8,317.4,80z M249,82.4c-2.2,0.3-4-1.5-3.7-3.7
				c0.2-1.4,1.3-2.5,2.7-2.7c2.2-0.3,4,1.5,3.7,3.7C251.5,81.1,250.4,82.2,249,82.4z M268.2,82.4c-2.2,0.3-4-1.5-3.6-3.6
				c0.2-1.3,1.3-2.4,2.6-2.6c2.2-0.3,4,1.5,3.6,3.6C270.6,81.1,269.5,82.2,268.2,82.4z"/>
		</g>
	</g>
</g>
</svg>
