<svg width="2457" height="383" viewBox="0 0 2457 383" fill="none" xmlns="http://www.w3.org/2000/svg">
<path d="M116.969 285.934V374.229H0V8.77102H166.68C199.821 8.77102 226.724 13.4489 247.389 22.8046C268.053 31.7705 283.064 46.1939 292.422 66.0748C302.169 85.9557 307.043 111.879 307.043 143.844C307.043 192.182 296.321 228.046 274.876 251.435C253.432 274.435 220.291 285.934 175.453 285.934H116.969ZM116.969 201.148H161.417C169.994 201.148 175.843 199.394 178.962 195.886C182.471 192.377 184.226 185.945 184.226 176.589V129.811C184.226 120.455 182.471 114.023 178.962 110.515C175.843 107.006 169.994 105.252 161.417 105.252H116.969V201.148Z" fill="black"/>
<path d="M289.246 374.229L382.821 8.77102H564.707L658.282 374.229H541.314L476.396 121.04H471.132L406.215 374.229H289.246ZM357.673 316.34V231.554H589.856V316.34H357.673Z" fill="black"/>
<path d="M681.457 374.229V8.77102H797.256L876.794 136.827C882.253 145.404 885.957 153.2 887.906 160.217C890.246 166.844 891.416 172.886 891.416 178.344H894.925V8.77102H1011.89V374.229H896.094L816.556 246.173C811.487 237.207 807.783 229.41 805.444 222.783C803.104 215.766 801.934 209.724 801.934 204.656H798.425V374.229H681.457Z" fill="black"/>
<path d="M1192.5 383C1162.47 383 1137.52 380.076 1117.64 374.229C1097.75 367.992 1081.96 357.662 1070.26 343.238C1058.57 328.815 1050.18 309.324 1045.12 284.765C1040.44 259.816 1038.1 228.825 1038.1 191.792C1038.1 154.759 1040.83 123.963 1046.28 99.4046C1051.74 74.456 1060.91 54.77 1073.77 40.3466C1087.03 25.9232 1104.77 15.5929 1126.99 9.35574C1149.22 3.11858 1176.9 0 1210.04 0C1223.3 0 1237.53 0.779645 1252.73 2.33894C1267.94 3.50841 1281.98 5.26261 1294.84 7.60153C1308.1 9.94046 1318.04 12.4743 1324.67 15.2031L1310.05 107.591C1300.69 105.252 1290.36 103.303 1279.05 101.744C1268.14 100.184 1257.41 99.0148 1246.89 98.2351C1236.36 97.0656 1227 96.4809 1218.81 96.4809C1197.76 96.4809 1183.33 99.4046 1175.54 105.252C1167.74 110.709 1163.84 121.43 1163.84 137.412V288.858H1333.44L1342.22 356.687C1322.33 366.043 1300.5 372.67 1276.71 376.568C1253.32 380.856 1225.25 383 1192.5 383ZM1231.1 356.687V240.325H1201.27V155.539H1342.22V356.687H1231.1Z" fill="black"/>
<path d="M1365.72 191.792C1365.72 155.539 1368.65 125.133 1374.5 100.574C1380.34 76.0153 1389.9 56.3293 1403.15 41.5161C1416.8 26.7028 1434.93 16.1776 1457.54 9.94047C1480.16 3.31349 1508.04 0 1541.18 0C1574.32 0 1602.19 3.31349 1624.81 9.94047C1647.42 16.1776 1665.36 26.7028 1678.61 41.5161C1692.26 56.3293 1702.01 76.0153 1707.86 100.574C1713.71 125.133 1716.63 155.539 1716.63 191.792C1716.63 228.046 1713.71 258.452 1707.86 283.011C1702.01 307.18 1692.26 326.671 1678.61 341.484C1665.36 356.297 1647.42 367.017 1624.81 373.644C1602.19 379.881 1574.32 383 1541.18 383C1508.04 383 1480.16 379.881 1457.54 373.644C1434.93 367.017 1416.8 356.297 1403.15 341.484C1389.9 326.671 1380.34 307.18 1374.5 283.011C1368.65 258.452 1365.72 228.046 1365.72 191.792ZM1491.46 283.011H1544.69C1562.23 283.011 1574.32 280.867 1580.95 276.579C1587.57 271.901 1590.89 263.715 1590.89 252.02V99.9893H1537.08C1519.93 99.9893 1508.04 102.328 1501.41 107.006C1494.78 111.294 1491.46 119.286 1491.46 130.98V283.011Z" fill="black"/>
<path d="M1740.11 374.229V8.77102H1857.08V277.748H1968.2V374.229H1740.11Z" fill="black"/>
<path d="M1988.86 8.77102H2105.82V374.229H1988.86V8.77102Z" fill="black"/>
<path d="M2126.18 374.229V8.77102H2241.98L2321.52 136.827C2326.98 145.404 2330.68 153.2 2332.63 160.217C2334.97 166.844 2336.14 172.886 2336.14 178.344H2339.65V8.77102H2456.62V374.229H2340.82L2261.28 246.173C2256.21 237.207 2252.51 229.41 2250.17 222.783C2247.83 215.766 2246.66 209.724 2246.66 204.656H2243.15V374.229H2126.18Z" fill="black"/>
</svg>
