<svg id="katman_1" data-name="katman 1" xmlns="http://www.w3.org/2000/svg" viewBox="0 0 1080 1080"><defs><style>.cls-1{fill:#ffc800;}.cls-2{fill:#e1aa00;}.cls-3{fill:#7360e3;}.cls-4{fill:#fff;}</style></defs><polygon class="cls-1" points="421.84 346.71 403.93 401.69 527.99 491.95 528.05 491.91 528.05 423.9 527.99 423.94 421.84 346.71"/><polygon class="cls-1" points="658.16 346.8 551.89 423.9 551.89 491.91 676.01 401.87 658.16 346.8"/><polygon class="cls-1" points="404.19 611.46 403.93 612.26 527.99 702.52 528.05 702.48 528.05 521.61 417.63 601.71 404.19 611.46"/><polygon class="cls-1" points="662.21 601.69 552.02 521.51 551.89 521.61 551.89 702.48 676.01 612.44 675.71 611.51 662.21 601.69"/><path class="cls-1" d="M802.73,429a283.56,283.56,0,0,0-48.08-76.71c-1.63-1.87-3.3-3.71-5-5.54-2.62-2.83-5.29-5.64-8-8.38a285,285,0,0,0-403.28,0c-2.71,2.71-5.34,5.48-7.93,8.27q-2.44,2.65-4.81,5.35a285.09,285.09,0,1,0,477.11,77ZM636.3,757.74,676,728.94,653,658l-87.46,63.45-13.67,9.91v46.38c-3.94.19-7.9.3-11.89.3s-8-.11-12-.3V731.37l-.09.06-13.74-10L427,658l-23.06,70.8,39.94,29.06C360.29,720.88,302,637.26,302,540a242,242,0,0,1,1.88-30l100.06,72.81,104.75-76L390.17,420.6l-13.74-10,5.26-16.16,14.34-44a238,238,0,0,1,287.88-.05l14.35,44.28,5.24,16.16-13.76,10L571.37,506.67,676,582.78l100.21-72.69A240.07,240.07,0,0,1,778.05,540C778.05,637.19,719.79,720.76,636.3,757.74Z"/><path class="cls-2" d="M540,267a273,273,0,1,1-193.08,80A271.3,271.3,0,0,1,540,267m0-15.08c-159.13,0-288.13,129-288.13,288.13S380.87,828.13,540,828.13,828.13,699.13,828.13,540,699.13,251.87,540,251.87Z"/><path class="cls-2" d="M672.83,719.13,636.3,757.74s30.59-13.07,50-30L676,728.94Z"/><path class="cls-2" d="M407.17,719.13l36.53,38.61s-30.59-13.07-50-30L404,728.94Z"/><path class="cls-2" d="M403.89,582.78,308.71,465.13s-3,11.35-4.88,44.84Z"/><path class="cls-2" d="M676.11,582.78l95.18-117.65s3,11.35,4.88,44.84Z"/><polygon class="cls-2" points="403.93 612.26 528.05 665.95 528.05 702.48 403.93 612.26"/><polygon class="cls-2" points="676.07 612.26 551.95 665.95 551.95 702.48 676.07 612.26"/><polygon class="cls-2" points="528.05 468.37 403.93 401.69 527.99 491.95 528.05 468.37"/><polygon class="cls-2" points="551.95 468.37 676.07 401.69 552.01 491.95 551.95 468.37"/><circle class="cls-2" cx="684.07" cy="684.07" r="144.07"/><circle class="cls-3" cx="684.07" cy="684.07" r="118.21"/><g id="lxlT9a.tif"><path class="cls-4" d="M764.38,725.87a18.23,18.23,0,0,1-.49,2.19,10.2,10.2,0,0,1-4.71,5.8l-12.67,7.35-19,11a18.57,18.57,0,0,1-3.8,1.92,3.46,3.46,0,0,1-.91.14c-1.54,0-3.08,0-4.63,0a4.76,4.76,0,0,1-2.56-.69c-3.06-1.75-6.11-3.53-9.16-5.3q-9.5-5.49-19-11c-2.16-1.25-4.36-2.45-6.45-3.8a10,10,0,0,1-4.71-7.69,7.64,7.64,0,0,1,0-1q0-6.64,0-13.28a.77.77,0,0,1,.43-.77l15.15-8.76c.36-.21.4-.19.4.28,0,4.17,0,8.34,0,12.51a10.31,10.31,0,0,0,5.52,9.51c4.71,2.71,9.39,5.47,14.1,8.18a32.46,32.46,0,0,0,4.4,2.42,10.34,10.34,0,0,0,8.44-.1c1.45-.68,2.77-1.59,4.14-2.4,4.63-2.75,9.25-5.49,13.87-8.26a10.33,10.33,0,0,0,5.09-7.15,7.2,7.2,0,0,0,.13-1.32c0-7.25.07-14.51,0-21.77a9.72,9.72,0,0,0-5.27-8.61q-7.81-4.56-15.66-9.1a20.12,20.12,0,0,0-3.38-1.77,10.79,10.79,0,0,0-9.56,1c-6.15,3.65-12.35,7.21-18.53,10.8L678.16,696.4,654.78,710a16.92,16.92,0,0,1-4,2,10.9,10.9,0,0,1-8.74-1.23c-6.64-3.92-13.33-7.76-20-11.63-4.37-2.53-8.75-5-13.08-7.61a10.19,10.19,0,0,1-5.14-8,7.23,7.23,0,0,1,0-.93q0-19.69,0-39.4a9.31,9.31,0,0,1,2.92-6.95,13.59,13.59,0,0,1,2.78-1.85q6.59-3.87,13.19-7.72L640.78,616a22.17,22.17,0,0,1,4.37-2.22h6.36l.7.31a40,40,0,0,1,4,2.24l20.3,11.92c3.33,2,6.68,3.89,10,5.88a10.17,10.17,0,0,1,5.35,9.09c0,4.55,0,9.1,0,13.64a.83.83,0,0,1-.48.83q-6.33,3.64-12.64,7.31c-.83.48-1.65,1-2.47,1.44-.26.15-.4.13-.39-.21,0-.12,0-.24,0-.36,0-4.21,0-8.42,0-12.64a12.26,12.26,0,0,0-.09-1.6,10,10,0,0,0-4.87-7.58c-6-3.63-11.91-7.27-17.92-10.81a10.24,10.24,0,0,0-8.28-1,16.67,16.67,0,0,0-3.66,1.82l-14.58,8.48A17.36,17.36,0,0,0,623,645a10.26,10.26,0,0,0-3.27,7.74v20a13.82,13.82,0,0,0,.06,1.57,10.06,10.06,0,0,0,4.81,7.74c.79.5,1.6,1,2.41,1.46l13.67,8.27a17.07,17.07,0,0,0,4,2,10.09,10.09,0,0,0,8.28-.82q7.91-4.68,15.77-9.45c4.57-2.76,9.17-5.47,13.87-8,3.08-1.66,6.16-3.33,9.18-5.09,7.76-4.52,15.45-9.13,23.22-13.64a10.38,10.38,0,0,1,9.48-.68,21.64,21.64,0,0,1,2.5,1.37l18,10.44c4.61,2.67,9.2,5.35,13.82,8a11,11,0,0,1,4.93,5.49,13.77,13.77,0,0,1,.69,2.76Z"/></g></svg>